<svg xmlns="http://www.w3.org/2000/svg" viewBox="0 0 256 288">
  <g>
    <path d="M255.569 84.452c-.002-4.83-1.035-9.098-3.124-12.76-2.052-3.603-5.125-6.622-9.247-9.009-34.025-19.619-68.083-39.178-102.097-58.817-9.17-5.294-18.061-5.1-27.163.27C100.395 12.39 32.59 51.237 12.385 62.94 4.064 67.757.015 75.129.013 84.578 0 124.062.013 163.545 0 203.029c0 4.912 1.041 9.284 3.157 13.007 2.127 3.74 5.24 6.835 9.406 9.243 20.206 11.703 88.02 50.547 101.56 58.536 9.106 5.373 17.997 5.565 27.17.269 34.015-19.64 68.075-39.198 102.105-58.817 4.217-2.44 7.358-5.553 9.484-9.376 2.084-3.747 3.118-8.064 3.12-12.948l-.433-118.491z" fill="#A179DC"/>
    <path d="M128.182 143.241L2.988 215.197c2.128 3.74 5.24 6.835 9.406 9.243 20.206 11.703 88.02 50.547 101.56 58.536 9.106 5.373 17.997 5.565 27.17.269 34.015-19.64 68.075-39.198 102.105-58.818 4.217-2.44 7.358-5.553 9.484-9.375L128.182 143.24z" fill="#280068"/>
    <path d="M255.569 84.452c-.002-4.83-1.035-9.098-3.124-12.76L128.182 143.24l124.531 71.812c2.084-3.747 3.118-8.064 3.12-12.948l-.264-117.652z" fill="#390091"/>
    <path d="M201.892 116.294v13.474h13.474v-13.474h6.737v13.474h13.474v6.737h-13.474v13.474h13.474v6.737h-13.474v13.474h-6.737v-13.474h-13.474v13.474h-6.737v-13.474h-13.474v-6.737h13.474v-13.474h-13.474v-6.737h13.474v-13.474h6.737zm13.474 20.21h-13.474v13.475h13.474v-13.474z" fill="#FFF"/>
    <path d="M128.457 48.626c35.144 0 65.827 19.086 82.262 47.456l-.16-.273-41.35 23.808c-8.146-13.793-23.08-23.102-40.36-23.102-25.6 0-46.453 20.497-47.152 45.94-.007.37-.011.742-.011 1.114 0 .406.004.812.013 1.216.757 25.392 21.583 45.835 47.15 45.835 17.151 0 32.028-9.2 40.202-22.87l41.072 24.222c-16.36 28.535-47.132 47.744-82.413 47.744-52.494 0-95.105-42.612-95.105-95.105 0-52.494 42.611-94.985 95.105-94.985h.747z" fill="#FFF"/>
  </g>
</svg>
