<svg xmlns="http://www.w3.org/2000/svg" viewBox="0 0 256 256">
  <g fill="#00ACD7">
    <path d="M29.1 112.5c-.3 0-.5-.2-.3-.5l2.1-2.7c.2-.3.7-.5 1-.5h35.7c.3 0 .5.3.3.6l-1.7 2.6c-.2.3-.7.6-1 .6l-36.1-.1z"/>
    <path d="M3.2 123.6c-.3 0-.5-.2-.3-.5l2.1-2.7c.2-.3.7-.5 1-.5h45.6c.3 0 .5.3.4.6l-.8 2.4c0 .4-.5.6-.8.6l-47.2.1z"/>
    <path d="M46.5 134.7c-.3 0-.5-.3-.3-.6l1.4-2.5c.2-.3.6-.6 1-.6h20c.3 0 .5.3.5.6l-.2 2.4c0 .3-.3.6-.6.6l-21.8.1z"/>
    <path d="M153.4 110.1c-7.5 1.9-12.6 3.4-20 5.3-1.8.5-1.9.5-3.4-1.3-1.8-2.1-3.1-3.5-5.6-4.7-7.5-3.8-14.8-2.7-21.6 1.6-8 5.1-12.2 12.7-12.1 21.8.1 9 6.3 16.4 15.2 17.8 7.6 1.2 14-1.3 19.2-6.9 1.1-1.2 2-2.6 3.2-4.1H113c-2.5 0-3.1-1.6-2.3-3.6 1.6-3.7 4.5-9.9 6.2-13 .3-.6 1.1-1.6 2.7-1.6h44.3c-.3 3.4-.3 6.9-.8 10.3-1.5 8.9-5.1 17-10.8 24-9.4 11.6-21.3 18.8-35.8 20.5-11.8 1.4-22.7-.8-32.3-8.3-8.6-6.7-13.5-15.5-14.7-26.2-1.5-13.1 2.7-24.7 10.8-35 8.8-11.3 20.3-18 33.9-20.7 11.1-2.2 21.8-1.2 31.5 5 6.4 4.1 10.8 9.8 13.8 16.7.6 1-.2 1.5-1.2 1.8z"/>
    <path d="M196.3 160.5c-10.9-.4-20.6-3.5-28.8-10.6-7-6-11.3-13.6-12.5-22.7-1.7-12.9 2.1-24 10.2-33.7 8.8-10.6 20-16.7 33.3-18.4 11.6-1.5 22.3.2 31.8 7.2 8.1 6 13.1 13.9 14.4 23.7 1.8 14.2-1.8 26.3-11.2 36.7-7.8 8.7-17.6 14-28.8 16.5-3 .6-5.9.7-8.4 1.3zm26.2-42.6c-.1-1.7-.1-3-.4-4.3-2.4-11.5-13.5-17.4-24-13.2-10.3 4.1-15.5 12.2-16.1 23.2-.5 8.4 5.1 16.2 13.3 18.3 6.5 1.7 12.6.4 17.8-4.1 6.3-5.6 9-12.7 9.4-19.9z"/>
  </g>
</svg>
